# xmcd CD database file
#
# Track frame offsets:
#	150
#	16500
#	43409
#	65234
#	88559
#	106784
#	126134
#	141959
#	159553
#	179428
#	199303
#	221979
#	238704
#	264343
#	285993
#
# Disc length: 4168 seconds
#
# Revision: 0
# Processed by: cddbd v1.5.1PL0 Copyright (c) Steve Scherf et al.
# Submitted via: CDex 1.60beta1
#
DISCID=dd10460f
DTITLE=Sonic Revolution - Reincarnation
DYEAR=1900
DGENRE=ゲーム
TTITLE0=2-0-0-2
TTITLE1=Bekueve -Final Edit-
TTITLE2=Permanent Moment
TTITLE3=Ogre Killer
TTITLE4=Wyvern
TTITLE5=刻の涙
TTITLE6=EuroEnergy
TTITLE7=Dream In The Dream
TTITLE8=Cylazard
TTITLE9=失われし超古代文明都市
TTITLE10=Luin Of Paradise
TTITLE11=大地に抱かれて
TTITLE12=飛べないツバサ - Theme Of Noldia -
TTITLE13=太古の夢 - Eternal -
TTITLE14=花 〜More Than You Know〜
EXTD=
EXTT0=
EXTT1=
EXTT2=
EXTT3=
EXTT4=
EXTT5=
EXTT6=
EXTT7=
EXTT8=
EXTT9=
EXTT10=
EXTT11=
EXTT12=
EXTT13=
EXTT14=
PLAYORDER=
